<svg id="baa29f41-9dbf-4856-b82e-7b2475d87563" data-name="Capa 1" xmlns="http://www.w3.org/2000/svg" viewBox="0 0 90 86.4"><title>1</title><path d="M44.56,47.32A21.94,21.94,0,0,1,60.33,54l.64-.63a23,23,0,0,0-32.83,0l.64.63a22,22,0,0,1,15.78-6.65Zm0,9.42a12.61,12.61,0,0,1,9.5,4.31l.67-.59a13.51,13.51,0,0,0-20.35,0l.67.59A12.65,12.65,0,0,1,44.56,56.74Zm12.4-4a.49.49,0,0,0-.64,0l-5,3.26,1.06.59L56,54.25l-.57,2-.47-.36-.95.62,1.1.84-.32,1.11.94.86,1.66-5.75a.49.49,0,0,0-.18-.61Zm-21.91,4a1.37,1.37,0,0,0,.54-.92,1.47,1.47,0,0,0-.46-1.18l-2-2.45.88-.71,2.18,2.68a2.26,2.26,0,0,1,.57,1.73,2.83,2.83,0,0,1-2.9,2.36,2.27,2.27,0,0,1-1.58-.92l-2.18-2.68.88-.71,2,2.45a1.44,1.44,0,0,0,1,.69A1.38,1.38,0,0,0,35.05,56.71Zm4.75-6.34.26,1.29,2.59-.53.21,1-2.59.52.11.55c.13.6.36.7.9.59l2.08-.42.21,1.05-2.14.44a1.61,1.61,0,0,1-2.14-1.32L38.56,50a.4.4,0,0,1,.33-.51l3.52-.72.21,1.06-2.82.57Zm7.67,4.46-.69-.18a.4.4,0,0,1-.3-.52l.94-3.58a1.59,1.59,0,0,1,2.2-1.19l2.12.55-.27,1-2-.53c-.54-.14-.78-.05-.93.54l-.14.53,2.55.67-.27,1-2.55-.67ZM68.88,85h.27c.19,0,.36,0,.36-.24s-.16-.21-.32-.21h-.31Zm0,.19v.64h-.22V84.39h.56c.35,0,.52.12.52.42a.38.38,0,0,1-.38.4l.42.65h-.25l-.39-.64Zm-.76-.1a1,1,0,1,0,1-1.06A1,1,0,0,0,68.12,85.12Zm1,1.28a1.28,1.28,0,1,1,1.29-1.28A1.28,1.28,0,0,1,69.16,86.4Zm-6.94-9.15v5.53c0,.3-.12.44-.49.45v.29h5.64a19.13,19.13,0,0,1,.13-2h-.36c-.18.9-.36,1.09-.94,1.09H63.8V80.33h1.42c.48,0,.56.16.62.54h.29a8.43,8.43,0,0,1-.06-1c0-.29,0-.75.06-1h-.29c-.06.38-.14.54-.62.54H63.8v-2h2.29c.57,0,.72.2.83.79h.29c0-.54-.08-1.09-.08-1.64h-5.4v.29c.37,0,.49.15.49.45Zm-8.64,0v4c0,1.83,1,2.46,3,2.46s2.95-.63,2.95-2.61V77.21c0-.3.12-.43.49-.44v-.3c-.35,0-.78.07-1.23.07s-1,0-1.42-.07v.3c.46,0,.58.1.58.52v4c0,1.18-.51,1.44-1.37,1.44s-1.37-.24-1.37-1.44v-4c0-.42.12-.5.58-.52v-.3c-.43,0-.86.07-1.42.07a10.92,10.92,0,0,1-1.23-.07v.3C53.45,76.78,53.58,76.92,53.58,77.21ZM49.36,81v.77c0,.49-.42.84-1.18.84-1.24,0-2-1.49-2-2.81a2.23,2.23,0,0,1,2.22-2.52,1.8,1.8,0,0,1,1.92,1.42h.31c0-.62-.06-1.24-.07-1.86a4.06,4.06,0,0,0-2.1-.5,3.55,3.55,0,0,0-3.86,3.72,3.36,3.36,0,0,0,3.29,3.58A3,3,0,0,0,50,82.81l.24.71h.62V81.13c0-.48.19-.57.57-.59v-.33c-.48,0-.95.06-1.43.06s-.89,0-1.33-.06v.36C49.16,80.57,49.36,80.6,49.36,81Zm-8.62-.57h-1.5c.28-.75.62-1.6.86-2.45h0a22,22,0,0,0,.62,2.45Zm-4.09,2.78v.29c.38,0,.74-.06,1.11-.06s.74,0,1.1.06v-.29c-.35,0-.5-.15-.5-.34a1.17,1.17,0,0,1,.09-.37l.47-1.26H41l.34,1a1.68,1.68,0,0,1,.11.54c0,.24-.14.32-.54.4v.29c.46,0,.92-.06,1.38-.06s.91,0,1.36.06v-.29c-.32-.09-.48-.22-.64-.69l-2-6.07c-.33,0-.67.06-1,.06s-.66,0-1-.06v.28c.28,0,.4.18.4.28a1.28,1.28,0,0,1-.14.42l-2.09,5.29A.64.64,0,0,1,36.65,83.23Zm-6.55-6v5.53c0,.3-.13.44-.49.45v.29h5.64a19.13,19.13,0,0,1,.13-2H35c-.18.9-.36,1.09-.94,1.09h-2.4V80.36H33.1c.48,0,.56.16.62.55H34a8.72,8.72,0,0,1-.06-1c0-.29,0-.75.06-1h-.29c-.06.38-.14.54-.62.54H31.68V77.36H34c.57,0,.72.2.83.79h.29C35,77.6,35,77.06,35,76.51H29.61v.29c.36,0,.49.15.49.45Zm-6.79,0v5.57c0,.3-.13.44-.49.45v.29h5.31a12.19,12.19,0,0,1,.25-2.07H28c-.18.81-.47,1.13-1.18,1.13h-2V77.35c0-.3.08-.56.62-.58v-.3a14.1,14.1,0,0,1-1.41.07c-.39,0-.81,0-1.28-.07v.3c.36,0,.49.15.49.45Zm-15-5.5L8.52,70a5,5,0,0,1-2.91,1.16,3.71,3.71,0,0,1-3.44-3.71c0-2.31,1.34-3.68,3.08-3.68a2.27,2.27,0,0,1,2.42,2h.39c-.08-1-.12-2-.13-3.07a7.41,7.41,0,0,0-2.5-.37A5.14,5.14,0,0,0,0,67.55a5,5,0,0,0,5.16,5.18A5.73,5.73,0,0,0,8.35,71.71Zm24.4-6.37-.3,5.78c0,.58-.25.71-.79.75v.35c.43,0,.94-.09,1.45-.09s1,.05,1.59.09v-.35c-.83-.1-.9-.25-.9-.94,0-.37,0-.75,0-1.46L34,65.41h0l2.64,6.88h1.16l2.31-6.79h0l.32,4.12c0,.45.08,1.08.08,1.41,0,.63-.18.76-.86.84v.35c.57,0,1.16-.09,1.77-.09s1.2.05,1.8.09v-.35c-.28,0-.68-.1-.71-.46l-.44-5.9C42,65,42,64.42,42,64s.06-.52.55-.57V63.1c-.47,0-1,.08-1.44.08s-1,0-1.44-.08l-2.17,6.41L35.07,63.1c-.49,0-1,.08-1.49.08s-1,0-1.41-.08v.36c.53.07.62.13.62.56S32.77,65,32.75,65.34ZM20.91,72.22v-.35a.84.84,0,0,0,.72-.64l2.71-6.87a1.92,1.92,0,0,0,.17-.54c0-.14-.15-.36-.52-.36V63.1c.44,0,.87.08,1.3.08s.87,0,1.3-.08L29.13,71c.21.61.42.79.83.9v.34c-.58,0-1.17-.08-1.75-.08s-1.19,0-1.79.08v-.34c.51-.1.69-.21.69-.53a2.71,2.71,0,0,0-.13-.69l-.45-1.34H23.84l-.61,1.63a1.52,1.52,0,0,0-.11.49c0,.24.19.41.65.44v.34c-.47,0-1-.08-1.42-.08s-1,0-1.44.08Zm3.34-4H26.2a26.91,26.91,0,0,1-.8-3.18h0c-.32,1.11-.76,2.2-1.12,3.18ZM11.06,64v7.25c0,.39-.16.57-.63.58v.35c.61,0,1.15-.08,1.66-.08s1.05,0,1.66.08v-.35c-.47,0-.64-.19-.64-.58V68.11h3.35v3.18c0,.39-.17.57-.64.58v.35c.61,0,1.15-.08,1.66-.08s1.05,0,1.66.08v-.35c-.47,0-.64-.19-.64-.58V64c0-.38.17-.56.64-.58V63.1c-.61,0-1.15.08-1.66.08s-1.05,0-1.66-.08v.36c.47,0,.64.19.64.58v2.74H13.11V64c0-.39.17-.57.64-.58V63.1c-.61,0-1.15.08-1.66.08s-1.05,0-1.66-.08v.36c.47,0,.63.19.63.58Zm71.87,5h-.35c.07.83.12,1.81.12,2.93a9.41,9.41,0,0,0,3.09.52c2.32,0,4.21-1,4.21-2.88s-1.34-2.37-2.77-2.79l-1.5-.42c-.58-.18-1.27-.4-1.27-1.19,0-1,1.2-1.21,1.91-1.21A2.5,2.5,0,0,1,89,66h.35c-.07-.88-.11-1.76-.11-2.64a7.93,7.93,0,0,0-2.65-.45c-2.12,0-4.25.67-4.25,2.87,0,1.68,1.45,2.29,2.9,2.72l1,.3c.66.2,1.54.43,1.54,1.28,0,1.07-1.21,1.31-2,1.31A2.6,2.6,0,0,1,82.93,69.07ZM72.17,64v7.24c0,.39-.16.57-.63.58v.35c.44,0,.9-.08,1.35-.08s.87,0,1.33.08v-.35c-.37,0-.83,0-.83-.77v-6h0L78,72.22h1.46V64c0-.39.17-.57.64-.58v-.37a10,10,0,0,1-2.68,0v.37c.37,0,.83,0,.83.77v5h0l-3.82-6.19a5.76,5.76,0,0,1-1.21.09c-.52,0-1,0-1.66-.09v.37C72,63.47,72.17,63.65,72.17,64ZM55.53,64v7.25c0,.39-.17.57-.63.58v.35c.6,0,1.14-.09,1.65-.09s1.06.05,1.66.09v-.35c-.47,0-.63-.19-.63-.58V64c0-.38.16-.56.63-.58V63.1c-.61,0-1.14.08-1.66.08s-1,0-1.65-.08v.36c.47,0,.63.19.63.58ZM48,71V64.47l.85-.09c1.22,0,2,.44,2,1.69a1.78,1.78,0,0,1-2,2c-.18,0-.36,0-.49,0s-.21,0-.21.12c0,.29,1,.64,1.68.64A2.78,2.78,0,0,0,52.86,66c0-1.6-.93-2.82-3.48-2.82H45.29v.39c.47,0,.63.19.63.58v6.76c0,.65-.1.88-.64,1v.35c.61,0,1.15-.09,1.66-.09s1.06.05,1.93.09v-.35c-.81-.15-.9-.33-.9-.83Zm16.69-6.73c2.08,0,2.7,2.35,2.7,4S66.54,71,65.13,71c-2,0-2.69-2.37-2.69-4C62.44,65.94,63,64.31,64.66,64.31Zm.15,8A4.69,4.69,0,0,0,64.88,63a4.4,4.4,0,0,0-4.49,4.53C60.39,70,62.06,72.35,64.81,72.35ZM54.15,37.41a10.94,10.94,0,0,0,.1-3.81,25.3,25.3,0,0,1-3.65,4.25,28.13,28.13,0,0,1-5.52-.23,13.32,13.32,0,0,0,3,2.18,8.77,8.77,0,0,1-3.51,1.41A20.59,20.59,0,0,0,59.28,35.4,14.62,14.62,0,0,1,54.15,37.41Zm-9.07.21a42.71,42.71,0,0,1-4.55-2.26,46.67,46.67,0,0,1,.85-6.27,28.2,28.2,0,0,1-4.89,3.74,45,45,0,0,1-4.92-3.9A31.77,31.77,0,0,0,33.9,34.1a7.46,7.46,0,0,1-4.33.46s1.62,2,6.62,2.89a9.92,9.92,0,0,0,5.05,3.47s-.6-.65-.73-3.1A41.87,41.87,0,0,0,45.08,37.62ZM34,19.33a36.32,36.32,0,0,0-5.35.51,37.27,37.27,0,0,1-.44-4.1A17.66,17.66,0,0,0,26,20.55,4.27,4.27,0,0,0,24,21.69a7.07,7.07,0,0,0,1.34,2.39,13.06,13.06,0,0,0,1,6,12.49,12.49,0,0,1,1.43-3.62,27.41,27.41,0,0,0,3.79,2.52,23.34,23.34,0,0,1-2-5.11A29.08,29.08,0,0,1,34,19.33ZM28.88,10.7a35.21,35.21,0,0,1,3.93-3.28,13.6,13.6,0,0,0-3,.39A16.18,16.18,0,0,1,32,4a20.69,20.69,0,0,0-7.65,12.81,14.56,14.56,0,0,1,2.37-3.73,13,13,0,0,0,1.57,2.66A21.09,21.09,0,0,1,28.88,10.7Zm21.4-6.77a25.43,25.43,0,0,0-4.85-1.86,9.76,9.76,0,0,1,3.73-2,19.74,19.74,0,0,0-8,1.29,17.51,17.51,0,0,0-5.46.32,5.54,5.54,0,0,1,1.35,1.85,18.24,18.24,0,0,0-4.24,3.94,29.43,29.43,0,0,1,5.27-2c.19.35.4.71.62,1.06a20.58,20.58,0,0,0,2.47,3.11,14.19,14.19,0,0,1,2.17-5.24,45,45,0,0,1,6.94-.45ZM64.49,13.5A14.9,14.9,0,0,0,60.26,8a13.72,13.72,0,0,0-3-4.33A4.6,4.6,0,0,1,57,5.92a20.11,20.11,0,0,0-6.72-2A28.72,28.72,0,0,1,55.7,8.64,29.55,29.55,0,0,1,52.38,13a31.27,31.27,0,0,1,6.12-.85,43.83,43.83,0,0,1,3.8,6.26,25,25,0,0,0-.57-6A5,5,0,0,1,64.49,13.5ZM65.57,22a5.83,5.83,0,0,1-2.65,2.13,54.1,54.1,0,0,0-.62-5.81,69.89,69.89,0,0,1-2.89,6.71A26.73,26.73,0,0,1,52.86,25a27.26,27.26,0,0,0,4.28,4.26,39.86,39.86,0,0,1-2.89,4.33,15.85,15.85,0,0,0,5.68-2.48,5.76,5.76,0,0,1,1.64,1.66,10.2,10.2,0,0,0,1.28-4.49A13.87,13.87,0,0,0,65.57,22ZM45,23.18q-1.91,2.89-3.61,5.91a40,40,0,0,1-1.21-7.38c-2-.68-4.12-1.47-6.13-2.38,0,0,2.33-1.18,6.06-2.63a32.86,32.86,0,0,1,1.07-7.08s1.23,2.26,3.46,5.46c2.54-.84,5.13-1.55,7.75-2.14,0,0-2.07,2.56-4.68,6.27A67.62,67.62,0,0,0,52.86,25S49.5,24.43,45,23.18Z" transform="translate(0 0)" fill="#002c5f"/></svg>